<svg width="20" height="20" viewBox="0 0 20 20" fill="none" xmlns="http://www.w3.org/2000/svg">
<path fill-rule="evenodd" clip-rule="evenodd" d="M8.57227 1.54347C7.68584 1.54347 6.8081 1.71806 5.98915 2.05728C5.1702 2.3965 4.42609 2.8937 3.79929 3.5205C3.1725 4.14729 2.6753 4.89141 2.33608 5.71035C1.99686 6.5293 1.82227 7.40705 1.82227 8.29347C1.82227 9.17989 1.99686 10.0576 2.33608 10.8766C2.6753 11.6955 3.1725 12.4396 3.79929 13.0664C4.42609 13.6932 5.1702 14.1904 5.98915 14.5297C6.8081 14.8689 7.68584 15.0435 8.57227 15.0435C10.3625 15.0435 12.0794 14.3323 13.3452 13.0664C14.6111 11.8006 15.3223 10.0837 15.3223 8.29347C15.3223 6.50326 14.6111 4.78637 13.3452 3.5205C12.0794 2.25463 10.3625 1.54347 8.57227 1.54347ZM0.322266 8.29347C0.322441 6.96856 0.641706 5.66319 1.25305 4.48777C1.8644 3.31234 2.74985 2.30145 3.8345 1.54059C4.91915 0.77973 6.17109 0.291293 7.48443 0.116592C8.79776 -0.0581082 10.1339 0.0860676 11.3797 0.536924C12.6255 0.98778 13.7444 1.73205 14.6418 2.70679C15.5392 3.68152 16.1886 4.85804 16.5351 6.13683C16.8816 7.41562 16.9151 8.75905 16.6326 10.0535C16.3501 11.3479 15.76 12.5553 14.9123 13.5735L19.6023 18.2635C19.676 18.3321 19.7351 18.4149 19.776 18.5069C19.817 18.5989 19.8391 18.6982 19.8409 18.7989C19.8426 18.8996 19.8241 18.9997 19.7864 19.0931C19.7487 19.1865 19.6925 19.2713 19.6213 19.3425C19.5501 19.4137 19.4653 19.4699 19.3719 19.5076C19.2785 19.5453 19.1784 19.5638 19.0777 19.5621C18.977 19.5603 18.8777 19.5382 18.7857 19.4972C18.6937 19.4563 18.6109 19.3972 18.5423 19.3235L13.8523 14.6335C12.6475 15.637 11.1817 16.2763 9.62659 16.4767C8.07149 16.6771 6.49149 16.4302 5.07168 15.7649C3.65187 15.0996 2.45105 14.0434 1.6099 12.7202C0.768745 11.397 0.322093 9.86143 0.322266 8.29347Z" fill="#344054"/>
</svg>
